<?xml version="1.0" encoding="UTF-8"?>
<!DOCTYPE svg PUBLIC "-//W3C//DTD SVG 1.1//EN" "http://www.w3.org/Graphics/SVG/1.1/DTD/svg11.dtd">
<!-- Creator: CorelDRAW X7 -->
<svg xmlns="http://www.w3.org/2000/svg" xml:space="preserve" width="4.20822in" height="2.30933in" version="1.1" style="shape-rendering:geometricPrecision; text-rendering:geometricPrecision; image-rendering:optimizeQuality; fill-rule:evenodd; clip-rule:evenodd"
viewBox="0 0 3614 1983"
 xmlns:xlink="http://www.w3.org/1999/xlink">
 <defs>
  <style type="text/css">
   <![CDATA[
    .fil0 {fill:url(#id0)}
   ]]>
  </style>
  <linearGradient id="id0" gradientUnits="userSpaceOnUse" x1="505" y1="913.176" x2="3108.86" y2="1069.99">
   <stop offset="0" style="stop-opacity:1; stop-color:#ED2F59"/>
   <stop offset="1" style="stop-opacity:1; stop-color:#815AA4"/>
  </linearGradient>
 </defs>
 <g id="Layer_x0020_1">
  <metadata id="CorelCorpID_0Corel-Layer"/>
  <path class="fil0" d="M1255 427c0,5 -12,12 -12,32 -17,-12 -11,-35 -93,-61l-89 -34c-52,-17 -97,-43 -151,-54 -10,-3 -16,-5 -28,-7 -52,-8 -154,0 -84,69 3,3 5,5 8,7 3,4 4,4 8,8l130 117c33,23 72,50 115,50 24,0 46,-10 64,-16 10,-4 19,-8 30,-11 10,-3 22,-7 33,-7l-2 1c-25,12 -111,37 -111,67 0,39 91,55 121,42 3,-1 5,-3 9,-4 2,-1 5,-3 6,-3 4,-2 -1,-1 5,-2 0,9 -2,24 -4,33 -4,23 -15,38 0,39 -6,-9 -1,-19 3,-29 6,-13 4,-19 6,-35l2 -12c2,-6 6,-8 11,-15 6,-7 15,-17 17,-26l4 0c0,11 -2,11 -2,22l1 40c0,5 -3,14 -3,17 0,8 3,8 2,15l-2 27c0,11 2,2 0,13 -1,8 -2,5 -1,15 0,5 2,13 2,15 -1,17 -7,16 1,50 1,4 0,2 0,6 0,17 8,51 9,62 0,9 -1,-2 -1,5 0,12 8,36 5,45 -1,3 -8,13 -10,16l-312 476c3,5 4,-1 7,-5l21 -29c2,-3 2,-4 5,-7l161 -237c21,-34 45,-66 65,-100l16 -23c2,-3 3,-6 5,-9 4,-6 7,-11 10,-16l31 -47c4,-7 3,-11 12,-14 0,13 -2,17 -2,31 0,58 -3,510 1,544 3,18 1,71 3,102 8,-6 4,-28 4,-38l2 -639c8,6 16,21 21,30l29 46c4,5 7,10 11,15l142 216c14,21 28,40 41,61l82 111c-54,-84 -110,-166 -166,-249l-132 -206c-31,-47 -16,-22 -14,-68 2,-39 12,-73 12,-111 0,-10 -1,-13 -2,-20 0,-8 2,-10 2,-20 0,-7 -2,-9 -2,-14l-1 -34c-1,-10 2,-17 -1,-29 -2,-9 0,-35 0,-47 0,-10 -1,-9 -2,-18l4 0c5,21 29,30 31,51 3,40 2,20 10,50 2,10 3,9 -2,16 15,-1 5,-16 1,-37 -2,-12 -3,-20 -3,-35 3,2 3,2 7,4 30,16 80,10 109,-7 5,-3 11,-6 14,-10 39,-38 -63,-70 -87,-81l-17 -7c16,0 34,6 48,12 5,2 9,4 15,6 44,16 75,25 118,2 27,-14 53,-31 77,-49 36,-25 68,-56 99,-87 7,-7 57,-55 57,-68 0,-17 -21,-32 -38,-32 1,11 3,14 16,14l0 6c-19,0 -23,-4 -23,-22 -10,-1 -19,-5 -31,-3 -15,2 -33,2 -48,6l-284 104c-47,18 -50,41 -63,50 0,-41 -27,-13 3,-56 8,-10 25,-33 35,-41 5,-4 6,-4 10,-8 5,-5 6,-6 11,-10l77 -56c6,-3 8,-4 8,-13 -1,1 -1,1 -1,2 -2,7 -14,10 -20,14 -12,7 -20,16 -32,22l-42 32c-33,28 -21,19 -44,46 -5,6 -9,17 -17,20 -2,-4 -2,-5 -4,-10 6,-8 28,-21 -2,-21l0 -12c-12,4 -3,6 -22,6 -7,0 -3,-3 -12,-6 5,21 -13,5 -14,18 3,12 12,10 12,15 0,5 -1,5 -2,10 -7,-2 -7,-4 -10,-9 -35,-49 -41,-45 -81,-82 -8,-6 -56,-33 -67,-45 1,16 20,16 47,38l17 14c29,22 56,46 77,76 4,6 15,18 15,24zm-1255 1314l2263 0 502 -321c88,113 223,193 406,240 -135,133 -300,218 -491,255l10 68c232,-44 424,-146 578,-304 75,19 189,40 344,62l2 -64c-75,-4 -177,-21 -306,-50 195,-216 293,-456 293,-718 0,-162 -26,-302 -78,-420 -70,-156 -175,-234 -316,-234 -127,0 -241,41 -340,123l-604 -378 -2263 0 0 1741zm59 -59l0 -1623 2187 0 569 361c-75,71 -130,150 -166,234 -20,-9 -47,-13 -79,-13 -62,0 -115,22 -159,66 -45,45 -67,96 -67,157 0,61 23,113 67,157 46,44 99,66 161,66 56,0 106,-23 153,-70 46,-47 69,-98 69,-153 0,-69 -31,-129 -93,-182 39,-88 95,-167 169,-235l77 51 0 740c-178,110 -411,257 -701,444l-2187 0zm2771 -305l177 -112 0 -798 -90 -58c95,-52 189,-78 283,-78 216,0 325,196 325,587 0,245 -97,472 -290,682 -109,-25 -185,-48 -226,-69 -61,-31 -121,-82 -179,-154z"/>
 </g>
</svg>
