<?xml version="1.0" encoding="UTF-8"?>
<!DOCTYPE svg PUBLIC "-//W3C//DTD SVG 1.1//EN" "http://www.w3.org/Graphics/SVG/1.1/DTD/svg11.dtd">
<!-- Creator: CorelDRAW X7 -->
<svg xmlns="http://www.w3.org/2000/svg" xml:space="preserve" width="3.27658in" height="2.82117in" version="1.1" style="shape-rendering:geometricPrecision; text-rendering:geometricPrecision; image-rendering:optimizeQuality; fill-rule:evenodd; clip-rule:evenodd"
viewBox="0 0 2099 1808"
 xmlns:xlink="http://www.w3.org/1999/xlink">
 <defs>
  <style type="text/css">
   <![CDATA[
    .fil0 {fill:url(#id0)}
   ]]>
  </style>
  <linearGradient id="id0" gradientUnits="userSpaceOnUse" x1="421.771" y1="806.28" x2="1677.55" y2="1003.54">
   <stop offset="0" style="stop-opacity:1; stop-color:#ED2F59"/>
   <stop offset="1" style="stop-opacity:1; stop-color:#815AA4"/>
  </linearGradient>
 </defs>
 <g id="Layer_x0020_1">
  <metadata id="CorelCorpID_0Corel-Layer"/>
  <path class="fil0" d="M832 714c33,9 74,25 123,48l-62 51c125,16 222,22 290,18 87,-5 141,-10 162,-15 59,-15 88,-47 88,-97 0,-47 -44,-113 -133,-196l-132 -122c0,-13 37,-26 111,-39 26,-5 62,-6 108,-3 4,-47 6,-85 5,-112 -5,-160 -74,-241 -210,-244 -58,-3 -107,11 -145,43 -42,33 -64,81 -64,142 0,90 41,143 120,158l-11 15 -68 -30c-6,-3 -14,-4 -24,-4 -57,0 -122,41 -199,121 -71,78 -107,141 -107,190 0,20 20,38 60,53 29,7 58,15 88,23zm226 603c3,3 4,7 5,10 0,3 0,6 0,9 -1,3 -2,6 -4,9 -2,3 -4,5 -7,7l-16 12 -1 -2c0,0 1,-1 2,-2 0,0 1,-1 1,-1 0,-1 1,-1 0,-2 0,-1 0,-1 0,-2l-22 -27c0,-1 -1,-1 -1,-2 -1,0 -2,0 -2,0 -1,0 -2,0 -3,1 0,0 -1,1 -2,1l-1 -2 17 -13c2,-2 4,-3 7,-4 3,-1 6,-2 8,-2 4,0 7,1 10,2 3,2 6,5 9,8zm-6 5c-2,-2 -5,-4 -7,-6 -2,-2 -5,-3 -7,-3 -2,-1 -5,-1 -7,0 -3,0 -5,2 -7,3 -1,1 -2,2 -3,2 0,1 -1,2 -2,2l23 29c1,2 3,2 4,2 2,0 3,-1 5,-2 2,-2 4,-4 5,-6 1,-2 2,-4 2,-6 0,-3 -1,-5 -2,-7 -1,-3 -2,-5 -4,-8zm49 -26l8 12 -32 24 -1 -2c0,0 1,-1 2,-1 0,-1 1,-2 1,-2 0,-1 1,-2 0,-2 0,-1 0,-1 -1,-2l-21 -27c0,-1 -1,-1 -1,-2 -1,0 -1,0 -2,0 -1,0 -2,1 -3,1 -1,1 -1,1 -2,1l-1 -2 29 -22 7 9 -2 1c-1,-1 -3,-2 -6,-2 -2,-1 -4,-1 -5,0 -1,0 -1,1 -2,1 -1,1 -2,1 -3,2l-6 5 12 15 4 -3c2,-1 3,-2 3,-3 0,-1 1,-2 1,-3 0,0 -1,-1 -1,-3 0,-1 -1,-2 -1,-2l2 -2 11 15 -2 1c0,0 -1,-1 -2,-2 -1,0 -2,-1 -3,-1 -1,0 -2,0 -3,0 -1,0 -2,1 -3,2l-4 3 9 12c1,1 1,2 2,2 1,1 1,1 2,1 1,0 2,0 2,-1 1,-1 3,-1 4,-3 1,0 1,-1 2,-1 1,-1 2,-2 3,-2 0,-1 1,-2 1,-2 1,-1 1,-2 1,-2 1,-2 0,-4 0,-6 0,-3 -1,-4 -1,-5l2 -2zm34 -27l8 12 -30 23 -1 -2c0,0 1,-1 1,-1 1,-1 2,-2 2,-2 0,-1 0,-1 0,-2 0,0 0,-1 -1,-2l-21 -27c0,-1 -1,-1 -1,-1 -1,-1 -2,-1 -2,-1 -1,1 -2,1 -3,1 -1,0 -1,1 -2,1l-1 -2 16 -12 1 2c0,0 -1,1 -1,2 -1,0 -2,1 -2,1 0,1 0,2 0,2 0,1 0,2 1,2l20 26c0,1 1,2 2,2 0,1 1,1 2,1 0,0 1,0 2,-1 1,0 2,-1 4,-2 0,-1 1,-1 2,-2 0,0 1,-1 2,-1 0,-1 1,-2 1,-2 0,-1 0,-1 1,-2 0,-1 -1,-3 -1,-6 0,-2 -1,-4 -1,-5l2 -2zm28 -3l-17 13 -2 -2c1,0 1,-1 2,-2 1,0 2,-1 2,-2 0,0 1,-1 1,-1 -1,-1 -1,-2 -1,-2l-22 -28c0,-1 -1,-1 -1,-1 -1,-1 -1,-1 -2,0 -1,0 -2,0 -3,1 -1,0 -2,1 -2,1l-2 -2 17 -13 2 2c-1,0 -1,1 -2,1 -1,1 -1,2 -2,2 0,1 0,2 0,2 0,1 0,2 1,2l21 28c1,0 1,1 2,1 0,0 1,0 2,0 0,0 1,0 2,-1 1,0 2,-1 2,-1l2 2zm12 -67c-1,0 -1,1 -2,1 0,1 -1,2 -1,2 0,1 0,2 0,3 0,1 0,2 0,3 1,4 3,9 5,17 3,8 5,16 7,25l-2 1c-8,-4 -15,-9 -23,-14 -7,-4 -12,-7 -15,-9 0,0 -1,-1 -2,-1 0,0 -1,0 -2,0 -1,0 -1,0 -2,1 -1,0 -1,0 -2,1l-2 -2 16 -12 2 2c-2,1 -3,2 -3,3 -1,1 -1,1 -1,2 0,0 0,0 1,0 0,1 0,1 0,1 2,1 6,3 10,6 5,3 11,7 20,12 -1,-4 -3,-10 -5,-15 -1,-6 -3,-10 -3,-13 -1,-2 -1,-3 -2,-4 0,0 -1,-1 -1,-1 0,-1 -1,-1 -1,-1 -1,0 -2,0 -2,0 -1,1 -2,1 -2,1 -1,1 -2,1 -2,2l-2 -2 14 -11 2 2zm52 -1l8 11 -31 25 -2 -2c1,0 2,-1 2,-2 1,-1 2,-1 2,-2 0,0 0,-1 0,-2 0,0 0,-1 -1,-1l-21 -28c0,0 -1,-1 -1,-1 -1,0 -2,0 -3,0 0,0 -1,0 -2,1 -1,0 -2,0 -2,1l-2 -2 30 -23 7 9 -2 2c-2,-1 -3,-2 -6,-3 -2,0 -4,0 -5,0 -1,1 -1,1 -2,2 -1,0 -2,1 -3,2l-6 4 12 15 4 -3c1,-1 2,-2 3,-3 0,0 0,-1 0,-2 0,-1 0,-2 0,-3 -1,-1 -1,-2 -1,-3l2 -1 11 14 -2 2c-1,-1 -2,-2 -3,-2 -1,-1 -2,-1 -2,-2 -1,0 -2,0 -3,1 -1,0 -2,0 -3,1l-4 4 8 11c1,1 2,2 3,3 0,0 1,0 2,0 1,0 1,0 2,0 1,-1 2,-2 4,-3 0,0 1,-1 2,-2 1,-1 2,-1 2,-2 1,0 2,-1 2,-2 1,-1 1,-1 1,-2 0,-1 0,-3 0,-6 -1,-2 -1,-4 -1,-5l1 -1zm50 -21l-10 8c-5,-2 -10,-3 -13,-4 -4,-2 -8,-3 -13,-4l-4 3 10 12c0,1 1,1 1,2 1,0 2,0 2,0 1,0 2,-1 2,-1 1,-1 2,-1 3,-2l1 2 -16 13 -1 -2c0,-1 1,-1 1,-2 1,0 2,-1 2,-1 0,-1 0,-2 0,-2 0,-1 0,-2 -1,-2l-21 -28c-1,0 -1,-1 -2,-1 0,-1 -1,-1 -2,0 0,0 -1,0 -2,1 -1,0 -1,0 -2,1l-1 -2 17 -14c2,-1 3,-2 5,-3 2,-1 3,-1 5,-1 2,0 3,0 5,1 1,0 3,1 4,3 1,1 2,3 2,4 1,2 1,3 1,5 0,1 -1,3 -2,4 0,1 -1,3 -2,4 4,1 7,2 9,3 3,1 6,2 10,3 1,0 3,0 4,0 1,0 2,0 2,0 1,0 2,0 3,-1 0,0 1,0 2,-1l1 2zm-36 -17c-2,-3 -4,-4 -6,-4 -3,-1 -5,0 -7,2l-5 4 13 16 3 -3c3,-2 4,-4 4,-7 1,-3 0,-6 -2,-8zm42 -45c0,0 -1,0 -1,1 -1,1 -1,1 -1,2 0,1 -1,2 -1,2 0,0 0,1 0,3 0,3 1,6 1,9 0,3 1,6 2,11 0,2 0,3 0,4 1,1 1,2 2,3l6 7c1,1 1,1 2,2 0,0 1,0 2,0 0,0 1,-1 2,-1 1,-1 2,-1 3,-2l1 2 -17 14 -2 -2c1,0 1,-1 2,-2 1,-1 2,-1 2,-2 0,-1 1,-1 1,-2 -1,-1 -1,-1 -1,-2l-8 -9c0,-1 0,-1 -1,-1 -1,-1 -2,-1 -4,-2 -2,-1 -5,-3 -8,-4 -4,-1 -6,-3 -9,-3 -1,-1 -2,-1 -3,-2 -1,0 -2,0 -3,0 0,0 -1,1 -2,1 0,0 -1,1 -1,1l-2 -2 16 -13 2 2c-2,2 -3,3 -4,4 0,0 0,1 0,1 0,1 0,1 0,1 1,0 1,0 2,1 0,0 1,0 2,0 1,1 1,1 2,1 2,1 4,2 6,3 2,1 5,2 8,4 0,-7 -1,-12 -1,-16 -1,-3 -1,-6 -2,-6 0,0 0,-1 -1,-1 0,0 -1,0 -2,1 0,0 -1,0 -1,1 -1,0 -2,1 -2,1l-2 -2 13 -10 2 2zm70 -33c0,0 1,2 1,4 -1,3 -1,5 -2,7 -2,4 -5,7 -8,10 -2,2 -6,4 -11,6 -5,1 -9,3 -11,5 -1,0 -2,1 -3,2 -1,1 -2,2 -2,3 -1,0 -2,0 -2,0 -1,-1 0,-3 1,-5 0,-2 1,-3 2,-5 1,-1 3,-3 4,-4 2,-2 6,-4 10,-5 5,-2 8,-4 10,-5 2,-2 5,-6 9,-14 1,0 1,0 2,1zm-29 3c1,1 1,2 1,5 0,3 -1,5 -2,7 -2,4 -4,7 -8,10 -2,2 -6,3 -11,5 -5,2 -9,4 -11,6 -1,0 -1,1 -3,2 -1,1 -1,2 -2,2 -1,1 -1,1 -2,0 0,0 0,-2 1,-4 1,-2 1,-4 2,-5 1,-2 3,-3 5,-5 2,-1 5,-3 9,-5 5,-1 8,-3 10,-5 2,-1 5,-5 9,-13 1,0 2,0 2,0zm17 24c1,1 1,2 1,5 0,2 -1,5 -2,7 -2,4 -4,7 -8,10 -2,2 -6,3 -11,5 -5,2 -9,4 -11,6 -1,0 -1,1 -2,2 -1,1 -2,2 -3,2 -1,1 -1,1 -2,0 0,0 0,-2 1,-4 1,-2 1,-4 2,-5 1,-2 3,-3 5,-5 2,-1 5,-3 10,-5 4,-2 7,-3 9,-5 2,-1 5,-6 10,-13 0,0 1,0 1,0zm11 -25c-3,5 -5,9 -9,12 -2,2 -5,3 -10,5 -4,2 -8,3 -10,5 -3,3 -5,6 -7,11 2,-2 3,-3 5,-5 2,-1 6,-3 11,-5 5,-2 9,-4 11,-6 3,-2 5,-4 7,-7 1,-4 2,-7 2,-10zm-29 4c-2,5 -5,9 -9,12 -2,1 -5,3 -10,5 -4,2 -7,3 -9,5 -4,2 -6,6 -7,10 1,-1 3,-3 4,-4 2,-2 6,-3 11,-5 6,-2 9,-4 12,-6 2,-2 5,-5 6,-8 2,-3 2,-6 2,-9zm17 24c-2,5 -5,9 -9,12 -2,1 -5,3 -9,5 -5,1 -8,3 -10,5 -4,2 -6,6 -7,10 1,-1 3,-3 4,-4 3,-2 6,-3 12,-5 5,-2 9,-4 11,-6 2,-2 5,-5 6,-8 2,-3 2,-6 2,-9zm-385 278c1,1 2,2 5,2 2,1 5,1 7,0 4,0 8,-2 12,-5 2,-2 4,-5 8,-10 3,-4 5,-7 7,-9 1,0 2,-1 3,-2 2,0 3,-1 3,-2 1,0 1,-1 1,-1 -1,-1 -2,-1 -5,-1 -2,0 -4,1 -5,1 -2,1 -4,2 -6,4 -2,1 -4,4 -7,8 -3,4 -5,6 -7,8 -2,1 -7,3 -15,6 -1,0 -1,1 -1,1zm11 -27c1,1 2,2 4,2 3,1 5,1 8,0 4,0 8,-2 11,-5 3,-2 5,-5 8,-9 3,-5 6,-8 8,-10 1,0 2,-1 3,-2 1,0 2,-1 3,-1 1,-1 1,-2 0,-2 0,-1 -2,-1 -4,-1 -2,0 -4,1 -5,1 -2,1 -4,2 -6,4 -2,1 -4,4 -7,8 -3,4 -6,6 -8,8 -1,1 -6,3 -15,6 0,0 0,1 0,1zm19 23c1,1 2,1 4,2 3,0 5,0 8,0 4,-1 8,-3 11,-6 3,-1 5,-4 8,-9 3,-5 6,-8 8,-9 1,-1 2,-1 3,-2 1,-1 2,-2 3,-2 1,-1 1,-1 0,-2 0,0 -2,-1 -4,0 -2,0 -4,0 -5,1 -2,1 -4,2 -6,3 -2,2 -5,4 -7,8 -3,4 -6,7 -8,8 -1,2 -6,4 -15,6 0,1 0,1 0,2zm-27 4c6,-1 10,-3 14,-6 2,-1 4,-4 7,-8 3,-4 5,-7 7,-8 4,-3 8,-4 12,-4 -2,1 -3,2 -5,3 -2,2 -5,5 -8,10 -3,4 -6,7 -8,9 -3,2 -6,4 -9,4 -4,1 -7,1 -10,0zm11 -27c6,-1 10,-3 14,-6 2,-1 4,-4 7,-8 3,-4 5,-7 7,-8 3,-3 7,-4 12,-4 -2,1 -4,2 -5,3 -2,2 -5,5 -8,10 -3,4 -6,7 -8,9 -3,2 -6,4 -10,4 -3,1 -6,1 -9,0zm19 22c6,-1 10,-2 14,-5 1,-2 4,-4 7,-8 3,-4 5,-7 7,-9 3,-2 7,-4 12,-4 -2,1 -4,2 -5,4 -2,1 -5,4 -8,9 -4,5 -6,8 -8,10 -3,2 -6,3 -10,4 -3,1 -6,0 -9,-1zm352 -346l-31 -40 -64 -8 -19 -23 78 9 10 -78 19 24 -8 64 30 40 -15 12zm-92 71l-68 -87 16 -13 55 72 32 -25 13 16 -48 37zm-96 74l-68 -87 88 -68 12 16 -71 55 6 8 72 -55 12 16 -72 55 37 48 -16 12zm-59 47l-31 -40 -64 -8 -18 -24 77 10 10 -78 19 24 -8 64 31 39 -16 13zm-109 -17l-7 -8 -55 43 6 8 56 -43zm-23 119l-68 -88 88 -68 68 88 -16 12 -37 -48 -56 44 37 48 -16 12zm-95 74l-77 -99 77 9 10 -77 77 99 -15 12 -47 -59 -6 49 -50 -6 47 60 -16 12zm-859 -35c-4,27 -7,53 -7,80 0,81 23,150 69,205 45,56 103,83 171,83 92,0 174,-26 243,-79 63,-47 102,-103 118,-167 -2,17 -2,30 0,38 6,45 99,86 278,123 146,30 286,38 418,25 -23,-1 -34,-41 -34,-121 0,-57 6,-110 19,-159 24,-102 74,-220 149,-355 43,-6 105,-17 187,-33 42,-12 83,-24 125,-36 55,-15 113,-23 173,-23 47,0 82,15 104,45 7,-24 10,-43 10,-58 -6,-129 -87,-257 -244,-383 -62,-49 -136,-92 -220,-128 -76,-33 -137,-50 -182,-51 -113,-4 -170,5 -170,25 0,2 41,42 124,119 82,77 124,142 124,194 0,94 -91,142 -273,144 -123,2 -231,-5 -321,-21 -22,21 -43,45 -64,72 -49,64 -90,136 -126,215 -25,57 -44,119 -57,187 9,-3 19,-5 29,-9l27 -8c24,-9 26,-2 32,-3 -3,-4 -2,-8 -3,-9 -1,-2 -6,-2 -7,-3 -11,-3 -21,-4 -32,-4l-6 0c-11,0 -15,3 -18,0 4,0 20,-2 23,-2 16,1 17,-1 34,4 2,1 2,1 4,1 -1,-2 -1,-2 -2,-3 0,-1 -2,1 -5,-1 -2,-4 5,-3 0,-7 3,-1 2,0 4,-1 4,-3 2,-2 4,-5l2 3c7,-6 4,1 4,4 2,1 2,1 3,2 1,-2 0,-6 0,-8 1,-10 0,-6 2,-19l4 -15c2,-3 2,-7 4,-11 1,-2 3,-4 2,-7 0,0 0,0 0,0 1,2 1,3 0,4l-8 27c0,2 0,3 0,4 -1,2 -1,2 -1,4 -1,4 -1,12 -1,16 1,16 2,4 10,14 1,-5 -3,-11 5,-23l48 -76c2,-3 6,-7 9,-10 3,-2 6,-3 8,-5 4,4 5,5 9,1l-1 -1c-3,2 -4,2 -6,0 4,-4 12,-4 15,0 2,3 -1,23 -1,26 -2,13 -4,26 -7,38 -3,9 -6,17 -10,25 -5,14 -14,17 -27,21 -2,1 -3,1 -5,2 -4,1 -10,3 -13,5l5 -1c8,-2 37,-13 35,3 0,2 -1,3 -2,5 -3,9 -14,20 -24,21 -1,1 -1,1 -2,1 3,3 4,5 7,7 5,4 10,6 6,9 0,-3 0,-2 -2,-4 -7,-6 -4,-1 -11,-10 -5,-4 -12,-2 -17,-6l-1 1c2,2 2,1 4,3 2,3 6,10 9,11 2,3 3,5 5,7l6 8c1,1 2,1 3,2 2,3 2,4 4,5 1,2 2,2 4,5 6,9 10,18 17,28 8,11 0,8 15,13l68 24c28,9 56,18 84,28l-39 -11c-7,-2 -14,-4 -21,-7l-72 -24c-2,-1 -3,-1 -5,-2l-15 -5c-3,-1 -8,-4 -10,-3l114 148c2,3 7,7 6,10 -6,-7 -15,-20 -19,-23 -7,-7 -88,-113 -98,-127 -3,-3 -3,-4 -5,-7 -2,2 -1,3 -1,6l2 16c0,2 0,4 0,5 0,1 0,2 1,3l0 8c1,12 2,24 3,36l5 84c0,1 0,1 0,2l1 11c0,1 1,3 -1,2l-13 -167c0,-1 -1,-4 -1,-5 -1,-3 -7,-7 -9,-10 -1,-1 1,1 -1,-1 -2,-2 -10,-9 -13,-13 -1,-1 0,0 -1,-1 -8,-7 -7,-8 -10,-12 0,0 -2,-2 -3,-3 -2,-2 -1,-1 -2,-4 -1,-3 0,0 -2,-2l-5 -7c-1,-2 -1,-1 -3,-3 0,-1 -2,-4 -2,-5l-8 -9c-2,-2 -1,-3 -3,-5l-1 0c1,3 1,7 1,9 0,3 -1,4 0,6l1 3c3,4 4,5 5,9 1,3 2,7 5,8 -4,2 -4,-3 -7,-9 -1,-3 -4,-7 -5,-9 -1,2 0,0 -1,2 0,0 -1,1 -1,1 -1,1 -1,2 -1,3 -5,8 -29,21 -36,12 -5,-7 10,-28 14,-36l0 0c-3,2 -4,5 -6,7 -2,3 -4,6 -5,8 -3,5 -7,11 -12,16 -10,7 -24,8 -36,9l-51 -4c-2,0 -2,0 -4,0 -1,0 -2,-1 -3,-1 -29,-3 -6,-23 7,-31 3,-2 5,-2 8,-3 5,-3 9,-4 14,-6 1,-25 5,-51 10,-77 12,-73 34,-142 65,-206 68,-143 135,-232 201,-267 -97,-39 -171,-58 -224,-58 -11,0 -21,1 -30,3 -19,5 -44,43 -74,117 -28,68 -50,137 -65,209 -11,72 -29,189 -55,350 -9,47 -32,87 -71,120 -38,34 -78,50 -119,50 -72,0 -107,-43 -107,-129 0,-59 19,-111 57,-156 39,-49 88,-73 146,-73 50,0 81,22 94,66 6,-43 17,-115 34,-215 16,-86 44,-175 84,-269 -84,-20 -169,-29 -257,-29 -112,0 -171,24 -179,74 -2,17 -1,40 5,70l178 52 -157 -24c-24,-4 -40,11 -47,45 -6,30 8,48 41,53l292 42 -2 22 -96 -17c-79,0 -149,25 -209,76 -65,55 -107,132 -127,230zm1291 22c-11,47 -17,99 -17,154 0,75 11,113 32,113 20,0 41,-5 65,-17 42,109 123,164 243,164 100,0 196,-40 288,-118 91,-79 150,-174 177,-285 9,-39 13,-78 13,-115 0,-113 -36,-196 -108,-249l15 -27c-24,-30 -59,-46 -103,-46 -57,0 -112,8 -165,22 -40,11 -79,23 -120,35 -36,8 -95,19 -176,30 -21,38 -40,75 -58,111 -41,87 -70,163 -86,228zm-193 -1198c26,-5 72,-13 138,-23 36,-5 76,-6 118,-3 3,18 7,48 10,90 0,19 -2,46 -8,81 -44,2 -89,-3 -134,-15 -45,-13 -86,-35 -121,-66l-3 -64zm-186 475c0,-26 8,-48 23,-65 15,-18 33,-27 53,-28 44,0 79,17 104,52l-55 4 0 6c14,0 41,-3 79,-6 9,-2 24,-5 45,-9 16,-3 30,-5 41,-5 20,0 43,9 69,27 26,18 39,36 39,51 0,22 -13,40 -38,53 -25,14 -55,21 -87,21 -33,0 -59,-7 -76,-21 -8,4 -19,6 -34,6 -37,0 -71,-8 -103,-22 -39,-17 -59,-38 -60,-64zm594 695c13,-45 26,-82 40,-110 31,91 61,136 91,136 12,0 28,-31 47,-93 25,-81 49,-139 70,-173 86,2 129,57 129,164 0,76 -26,146 -77,209 -54,66 -118,99 -193,99 -78,0 -117,-51 -117,-153 0,-26 3,-52 10,-79zm-388 -666c0,18 6,27 21,27 13,0 20,-9 20,-27 0,-19 -7,-28 -20,-28 -15,0 -21,9 -21,28z"/>
 </g>
</svg>
